<?xml version="1.0" encoding="UTF-8"?>
<!DOCTYPE svg PUBLIC "-//W3C//DTD SVG 1.1//EN" "http://www.w3.org/Graphics/SVG/1.1/DTD/svg11.dtd">
<svg xmlns="http://www.w3.org/2000/svg" version="1.1" width="1800px" height="800px" style="shape-rendering:geometricPrecision; text-rendering:geometricPrecision; image-rendering:optimizeQuality; fill-rule:evenodd; clip-rule:evenodd" xmlns:xlink="http://www.w3.org/1999/xlink">
<g><path style="opacity:0.937" fill="#b30400" d="M 199.5,164.5 C 211.295,164.388 223.295,164.554 235.5,165C 239.047,175.345 242.213,185.845 245,196.5C 251.697,198.039 258.364,199.706 265,201.5C 267.728,201.014 270.395,201.68 273,203.5C 277.058,204.029 281.225,204.029 285.5,203.5C 293.53,196.766 300.864,190.099 307.5,183.5C 314.359,185.617 321.526,187.95 329,190.5C 330.169,191.009 331.002,191.842 331.5,193C 311.625,206.418 300.958,224.751 299.5,248C 298.167,248.667 296.833,248.667 295.5,248C 234.685,222.063 177.685,229.396 124.5,270C 73.9488,316.663 56.2821,372.996 71.5,439C 71.1667,439.333 70.8333,439.667 70.5,440C 80.7487,464.013 90.9154,488.18 101,512.5C 124.3,555.666 160.633,577.999 210,579.5C 241.088,582.453 270.588,576.62 298.5,562C 309.414,554.654 318.914,545.821 327,535.5C 329.203,535.239 331.37,535.739 333.5,537C 340.617,545.622 347.951,554.122 355.5,562.5C 356.326,563.451 356.492,564.451 356,565.5C 353.512,567.743 350.846,569.743 348,571.5C 346.522,579.59 346.688,588.256 348.5,597.5C 347.894,599.64 348.227,601.807 349.5,604C 348.5,605 347.5,606 346.5,607C 334.118,611.684 321.618,616.184 309,620.5C 308.167,620.333 307.333,620.167 306.5,620C 299.787,612.657 293.454,605.657 287.5,599C 276.829,600.566 265.829,601.899 254.5,603C 253.062,603.219 251.729,603.719 250.5,604.5C 246.841,612.313 243.674,620.313 241,628.5C 240.047,630.455 238.713,632.122 237,633.5C 224.93,632.403 212.764,630.737 200.5,628.5C 198.295,629.374 196.462,628.708 195,626.5C 194.667,626.833 194.333,627.167 194,627.5C 191.264,617.952 188.931,608.286 187,598.5C 175.734,593.967 164.4,589.634 153,585.5C 144.146,590.924 135.479,596.591 127,602.5C 115.04,595.626 103.373,587.626 92,578.5C 92.7008,568.053 94.8674,557.887 98.5,548C 90.6787,538.18 82.1787,529.013 73,520.5C 67.4275,522.052 62.0942,524.052 57,526.5C 56.4387,525.978 55.772,525.645 55,525.5C 50.9166,526.919 46.7499,527.419 42.5,527C 35.4363,515.293 28.4363,503.626 21.5,492C 20.7907,490.125 20.7907,487.958 21.5,485.5C 28.5661,478.438 35.2327,471.105 41.5,463.5C 38.2752,451.593 35.2752,439.926 32.5,428.5C 31.0663,427.77 29.8996,426.77 29,425.5C 28.6667,425.833 28.3333,426.167 28,426.5C 25.302,425.72 22.9686,424.387 21,422.5C 20.6667,422.833 20.3333,423.167 20,423.5C 13.0825,421.902 7.08255,419.236 2,415.5C 1.33333,402.167 1.33333,388.833 2,375.5C 12.4366,370.68 22.9366,365.847 33.5,361C 35.2443,350.526 37.9109,340.026 41.5,329.5C 36.3416,323.205 30.0082,317.372 22.5,312C 19.8974,309.906 17.8974,307.406 16.5,304.5C 22.4076,293.008 28.2409,281.008 34,268.5C 35.4733,266.993 37.3066,266.326 39.5,266.5C 50.1178,268.47 60.7845,269.637 71.5,270C 78.3604,262.473 85.5271,255.306 93,248.5C 92.0829,240.403 89.9162,232.569 86.5,225C 86.6448,224.228 86.9781,223.561 87.5,223C 85.0085,220.62 83.6751,217.953 83.5,215C 84.9301,213.114 86.5968,211.447 88.5,210C 99.0752,203.881 109.742,198.048 120.5,192.5C 128.494,199.484 136.828,206.151 145.5,212.5C 157.394,208.054 169.394,203.888 181.5,200C 184.69,189.382 187.19,178.549 189,167.5C 189.5,167 190,166.5 190.5,166C 193.695,165.819 196.695,165.319 199.5,164.5 Z M 204.5,537.5 C 210.588,542.22 216.088,547.22 221,552.5C 217.564,551.714 214.064,551.047 210.5,550.5C 209.558,550.608 208.725,550.941 208,551.5C 207.395,549.519 206.395,549.185 205,550.5C 202.753,548.845 200.42,548.512 198,549.5C 197.333,548.5 197.333,547.5 198,546.5C 201.166,544.147 203.333,541.147 204.5,537.5 Z"/></g>
<g><path style="opacity:0.935" fill="#b30400" d="M 355.5,207.5 C 359.023,207.881 362.356,208.881 365.5,210.5C 366.895,209.185 367.895,209.519 368.5,211.5C 361.181,219.319 353.681,226.986 346,234.5C 345.333,235.833 345.333,237.167 346,238.5C 352.364,245.199 359.031,251.532 366,257.5C 374.637,249.864 382.97,241.864 391,233.5C 391.667,234.833 392.333,234.833 393,233.5C 399.897,259.24 390.73,275.407 365.5,282C 363.5,282.167 361.5,282.333 359.5,282.5C 354.781,281.979 350.114,281.479 345.5,281C 339.052,287.404 332.719,293.904 326.5,300.5C 319.677,292.844 312.344,285.678 304.5,279C 309.596,272.882 315.43,266.715 322,260.5C 320.715,252.254 320.382,243.921 321,235.5C 325.838,217.818 337.338,208.485 355.5,207.5 Z"/></g>
<g><path style="opacity:0.937" fill="#b20400" d="M 211.5,263.5 C 218.087,264.295 224.754,264.795 231.5,265C 247.36,266.375 263.027,269.708 278.5,275C 300.345,286.007 316.345,302.174 326.5,323.5C 330.17,330.01 333.17,336.843 335.5,344C 330.686,350.313 325.019,355.813 318.5,360.5C 313.421,357.919 309.921,353.919 308,348.5C 305.35,346.9 302.684,344.567 300,341.5C 285.663,326.969 270.663,326.969 255,341.5C 248.026,349.978 242.859,359.145 239.5,369C 230.745,390.978 228.412,413.478 232.5,436.5C 232.392,437.442 232.059,438.275 231.5,439C 233.47,443.951 235.137,449.118 236.5,454.5C 239.504,465.833 244.337,477.166 251,488.5C 265.869,505.296 282.202,506.63 300,492.5C 306.22,502.04 313.554,511.373 322,520.5C 322.167,521.333 322.333,522.167 322.5,523C 311.422,542.065 295.422,555.398 274.5,563C 251.922,569.931 229.422,571.431 207,567.5C 169.035,568.682 139.369,553.348 118,521.5C 95.2943,482.272 86.461,440.772 91.5,397C 93.3256,344.036 116.492,304.202 161,277.5C 171.878,271.955 183.711,267.955 196.5,265.5C 197.842,266.902 198.676,266.569 199,264.5C 200,264.833 201,265.167 202,265.5C 205.27,264.868 208.437,264.201 211.5,263.5 Z M 208.5,293.5 C 194.857,300.172 181.524,306.338 168.5,312C 172.5,307.333 176.5,302.667 180.5,298C 193.523,291.474 206.857,286.141 220.5,282C 215.945,285.391 211.945,289.225 208.5,293.5 Z M 180.5,283.5 C 170.876,292.287 162.542,302.12 155.5,313C 151.694,311.591 148.027,309.591 144.5,307C 154.709,296.397 166.709,288.564 180.5,283.5 Z M 296.5,292.5 C 294.54,291.862 292.707,291.862 291,292.5C 290,291.5 289,290.5 288,289.5C 287.333,292.167 286.667,292.167 286,289.5C 269.35,286.818 254.85,291.484 242.5,303.5C 232.94,313.069 225.774,323.736 221,335.5C 215.105,349.683 210.939,364.35 208.5,379.5C 200.528,425.918 207.361,470.585 229,513.5C 235.543,524.676 244.377,533.509 255.5,540C 268.575,544.907 281.908,545.741 295.5,542.5C 286.162,549.046 275.995,551.046 265,548.5C 251.046,545.16 239.212,537.16 229.5,524.5C 215.408,504.378 206.741,482.212 203.5,458C 197.222,422.41 198.722,386.91 208,351.5C 215.492,325.646 229.992,304.813 251.5,289C 261.081,284.244 271.081,282.91 281.5,285C 287.119,286.476 292.119,288.976 296.5,292.5 Z M 197.5,305.5 C 199.225,305.843 199.725,306.843 199,308.5C 198.667,308.167 198.333,307.833 198,307.5C 194.891,312.94 191.391,318.107 187.5,323C 176.087,329.121 164.921,335.621 154,342.5C 155.689,336.121 158.189,329.954 161.5,324C 173.227,317.059 185.227,310.892 197.5,305.5 Z M 137.5,314.5 C 142.105,316.471 146.438,318.971 150.5,322C 147.962,327.577 145.295,333.077 142.5,338.5C 137.833,334.5 133.5,330.167 129.5,325.5C 132.191,321.815 134.858,318.148 137.5,314.5 Z M 183.5,332.5 C 184.043,332.56 184.376,332.893 184.5,333.5C 182.667,338.5 180.833,343.5 179,348.5C 168.28,356.887 157.28,364.887 146,372.5C 145.972,366.372 146.972,360.372 149,354.5C 160.334,346.759 171.834,339.425 183.5,332.5 Z M 123.5,335.5 C 128.894,340.181 134.227,344.848 139.5,349.5C 137.557,355.715 136.057,362.048 135,368.5C 128.801,362.636 122.968,356.469 117.5,350C 119.595,346.742 120.595,343.409 120.5,340C 122.376,339.082 123.376,337.582 123.5,335.5 Z M 175.5,360.5 C 176.043,360.56 176.376,360.893 176.5,361.5C 174.929,368.073 173.596,374.407 172.5,380.5C 162.833,388.5 153.167,396.5 143.5,404.5C 141.47,401.794 141.47,399.294 143.5,397C 143.413,392.639 143.413,388.306 143.5,384C 154.068,375.917 164.735,368.084 175.5,360.5 Z M 114.5,361.5 C 121.217,367.383 127.384,373.716 133,380.5C 133.161,386.566 132.661,392.9 131.5,399.5C 124.514,393.015 117.681,386.348 111,379.5C 111.833,373.491 112.999,367.491 114.5,361.5 Z M 109.5,392.5 C 116.47,399.3 123.636,405.967 131,412.5C 131.333,418.833 131.667,425.167 132,431.5C 133.615,432.656 133.615,433.989 132,435.5C 124.293,428.823 116.626,422.157 109,415.5C 107.846,413.063 107.346,410.563 107.5,408C 108.729,402.662 109.396,397.495 109.5,392.5 Z M 171.5,393.5 C 171.306,399.531 171.64,405.698 172.5,412C 162.342,421.17 152.842,430.336 144,439.5C 143.5,439 143,438.5 142.5,438C 142.246,431.014 142.579,423.847 143.5,416.5C 153.322,409.279 162.655,401.613 171.5,393.5 Z M 170.5,426.5 C 171.918,433.352 172.585,440.018 172.5,446.5C 164.86,454.806 156.86,462.806 148.5,470.5C 146.592,464.028 145.259,457.695 144.5,451.5C 153.794,443.874 162.461,435.54 170.5,426.5 Z M 108.5,428.5 C 116.469,435.159 124.469,441.825 132.5,448.5C 134.116,454.224 135.449,460.057 136.5,466C 136.167,466.5 135.833,467 135.5,467.5C 127.072,462.203 118.905,456.537 111,450.5C 109.07,443.111 108.237,435.777 108.5,428.5 Z M 173.5,458.5 C 174.99,464.342 176.323,470.342 177.5,476.5C 170.472,483.86 163.472,491.193 156.5,498.5C 154.094,492.751 152.094,487.251 150.5,482C 158.396,474.272 166.063,466.438 173.5,458.5 Z M 112.5,463.5 C 121.228,469.617 130.061,475.617 139,481.5C 140.638,486.748 142.471,491.915 144.5,497C 137.866,495.267 132.033,492.1 127,487.5C 126.667,487.833 126.333,488.167 126,488.5C 123.502,486.583 120.835,484.916 118,483.5C 117.058,480.557 115.892,477.724 114.5,475C 114.833,474.667 115.167,474.333 115.5,474C 114.269,470.577 113.269,467.077 112.5,463.5 Z M 179.5,487.5 C 181.748,492.563 184.081,497.73 186.5,503C 180.667,510.167 174.833,517.333 169,524.5C 165.249,519.342 162.916,513.676 162,507.5C 168.042,500.962 173.875,494.295 179.5,487.5 Z M 123.5,498.5 C 131.988,502.909 140.654,507.076 149.5,511C 152.167,516 154.833,521 157.5,526C 148.509,522.673 139.843,518.506 131.5,513.5C 128.554,508.605 125.887,503.605 123.5,498.5 Z M 189.5,514.5 C 190.458,514.953 191.292,515.619 192,516.5C 194.047,520.761 196.213,524.928 198.5,529C 194.948,533.944 191.282,538.777 187.5,543.5C 182.874,540.542 178.874,536.876 175.5,532.5C 180.573,526.767 185.239,520.767 189.5,514.5 Z M 148.5,533.5 C 154.526,535.564 160.526,537.731 166.5,540C 169.597,542.391 171.763,545.224 173,548.5C 168.384,547.286 163.884,545.453 159.5,543C 155.641,539.968 151.974,536.802 148.5,533.5 Z M 204.5,537.5 C 203.333,541.147 201.166,544.147 198,546.5C 197.333,547.5 197.333,548.5 198,549.5C 200.42,548.512 202.753,548.845 205,550.5C 206.395,549.185 207.395,549.519 208,551.5C 208.725,550.941 209.558,550.608 210.5,550.5C 214.064,551.047 217.564,551.714 221,552.5C 216.088,547.22 210.588,542.22 204.5,537.5 Z"/></g>
<g><path style="opacity:0.935" fill="#b20400" d="M 857.5,324.5 C 888.278,320.757 904.278,334.591 905.5,366C 896.73,366.94 888.064,366.607 879.5,365C 880.346,349.521 873.346,344.188 858.5,349C 852.093,356.637 851.926,364.803 858,373.5C 869.096,383.265 880.763,392.265 893,400.5C 904.734,412.078 909.068,426.078 906,442.5C 902.078,458.767 892.244,468.267 876.5,471C 845.072,475.662 828.405,462.328 826.5,431C 827.333,428.833 828.833,427.333 831,426.5C 837.855,427.282 845.021,427.449 852.5,427C 852.167,427.333 851.833,427.667 851.5,428C 853.689,428.677 854.022,429.844 852.5,431.5C 852.752,446.458 860.085,451.958 874.5,448C 882.679,439.243 883.513,430.076 877,420.5C 864.667,411.167 852.333,401.833 840,392.5C 829.508,380.011 826.175,366.011 830,350.5C 833.843,336.156 843.01,327.489 857.5,324.5 Z"/></g>
<g><path style="opacity:0.936" fill="#b20400" d="M 519.5,326.5 C 540.548,326.411 561.214,326.744 581.5,327.5C 581.93,331.972 582.596,336.639 583.5,341.5C 582.167,343.167 582.167,344.833 583.5,346.5C 583.023,347.478 582.357,348.311 581.5,349C 568.686,349.31 556.019,349.477 543.5,349.5C 543.333,361.838 543.5,374.171 544,386.5C 553.209,386.709 562.209,386.709 571,386.5C 571.691,388.891 572.691,388.891 574,386.5C 575.786,387.777 576.952,389.444 577.5,391.5C 577.245,396.727 577.245,401.727 577.5,406.5C 576.975,407.192 576.308,407.692 575.5,408C 575.833,408.333 576.167,408.667 576.5,409C 565.505,409.5 554.505,409.667 543.5,409.5C 543.623,430.04 543.623,450.207 543.5,470C 535.735,470.295 528.235,470.461 521,470.5C 520.097,469.299 518.931,468.465 517.5,468C 517.348,421.314 517.515,374.48 518,327.5C 519.107,328.712 519.607,328.379 519.5,326.5 Z"/></g>
<g><path style="opacity:0.935" fill="#b20400" d="M 686.5,326.5 C 699.665,326.57 712.831,326.57 726,326.5C 750.533,327.033 763.033,339.533 763.5,364C 764.242,378.208 758.908,388.541 747.5,395C 754.887,398.601 760.387,404.101 764,411.5C 769.331,427.171 767.998,442.171 760,456.5C 752.179,465.743 742.179,470.41 730,470.5C 717.283,470.214 705.283,470.214 694,470.5C 691.667,469.833 689.333,469.167 687,468.5C 686.5,421.168 686.333,373.835 686.5,326.5 Z M 716.5,347.5 C 731.2,345.609 738.533,351.776 738.5,366C 738.163,369.523 737.663,373.023 737,376.5C 736.27,380.896 733.77,383.73 729.5,385C 723.843,385.499 718.176,385.666 712.5,385.5C 712.5,373.167 712.5,360.833 712.5,348.5C 714.099,348.768 715.432,348.434 716.5,347.5 Z M 718.5,406.5 C 721.335,407.786 724.168,407.786 727,406.5C 729.655,408.053 732.488,409.22 735.5,410C 737.377,412.251 738.877,414.751 740,417.5C 740.798,422.858 741.632,428.192 742.5,433.5C 742.154,434.696 741.654,434.696 741,433.5C 740.229,441.774 735.729,446.774 727.5,448.5C 722.95,448.737 718.283,448.404 713.5,447.5C 712.501,434.183 712.167,420.85 712.5,407.5C 714.735,407.795 716.735,407.461 718.5,406.5 Z"/></g>
<g><path style="opacity:0.936" fill="#b20400" d="M 784.5,326.5 C 792.888,326.973 800.888,326.973 808.5,326.5C 809.242,328.35 810.242,329.016 811.5,328.5C 811.429,343.096 811.429,358.096 811.5,373.5C 811.182,374.647 810.516,375.481 809.5,376C 810.308,376.308 810.975,376.808 811.5,377.5C 810.838,381.504 810.838,385.671 811.5,390C 811.245,391.326 810.578,392.326 809.5,393C 810.457,400.844 810.457,408.844 809.5,417C 812.167,419.333 812.167,421.667 809.5,424C 810.516,424.519 811.182,425.353 811.5,426.5C 810.836,439.836 810.836,453.669 811.5,468C 809.933,469.076 808.266,469.909 806.5,470.5C 799.323,470.533 792.156,470.2 785,469.5C 784.5,421.834 784.333,374.168 784.5,326.5 Z"/></g>
<g><path style="opacity:0.933" fill="#b20400" d="M 275.5,339.5 C 277.441,339.869 279.275,340.536 281,341.5C 282,341.167 283,340.833 284,340.5C 294.743,346.575 303.576,354.742 310.5,365C 307.976,369.024 304.642,372.191 300.5,374.5C 294.676,368.844 288.676,363.344 282.5,358C 277.87,355.849 273.537,356.182 269.5,359C 280.136,363.97 288.136,371.637 293.5,382C 287.578,387.925 281.078,393.091 274,397.5C 269.082,390 264.416,382.333 260,374.5C 256.434,370.934 252.934,367.434 249.5,364C 253.53,355.976 258.697,348.81 265,342.5C 265.333,342.833 265.667,343.167 266,343.5C 268.888,341.288 272.055,339.954 275.5,339.5 Z"/></g>
<g><path style="opacity:0.935" fill="#b20400" d="M 611.5,326.5 C 622.31,326.229 633.31,326.562 644.5,327.5C 645,328.5 645.5,329.5 646,330.5C 654.587,376.129 663.42,421.462 672.5,466.5C 672.42,468.33 671.587,469.663 670,470.5C 662,469.176 654.667,469.176 648,470.5C 645.293,461.406 643.459,452.073 642.5,442.5C 632.833,442.5 623.167,442.5 613.5,442.5C 612.477,451.615 610.81,460.615 608.5,469.5C 601.915,469.23 595.248,469.563 588.5,470.5C 584.166,469.828 583.166,467.995 585.5,465C 593.107,419.103 601.774,372.937 611.5,326.5 Z M 631.5,375.5 C 631.806,381.813 632.806,387.979 634.5,394C 633.786,395.343 634.12,396.676 635.5,398C 635.5,401 635.5,404 635.5,407C 636.622,410.936 637.622,414.936 638.5,419C 638.37,420.059 637.87,420.892 637,421.5C 630.59,420.522 624.09,420.189 617.5,420.5C 621.32,399.247 624.82,377.914 628,356.5C 629.144,362.678 630.31,369.012 631.5,375.5 Z"/></g>
<g><path style="opacity:0.937" fill="#b30400" d="M 427.5,351.5 C 428.552,351.351 429.552,351.517 430.5,352C 430.167,352.333 429.833,352.667 429.5,353C 431.578,354.486 432.911,356.486 433.5,359C 432.833,359.333 432.167,359.667 431.5,360C 433.744,362.376 434.077,365.043 432.5,368C 433.167,368.667 433.833,369.333 434.5,370C 434.717,374.758 434.717,379.592 434.5,384.5C 435.95,385.85 436.617,387.516 436.5,389.5C 439.43,391.71 442.93,393.377 447,394.5C 447.333,394.167 447.667,393.833 448,393.5C 449.314,394.313 450.481,395.313 451.5,396.5C 452.086,396.291 452.586,395.957 453,395.5C 453.918,397.632 455.251,398.299 457,397.5C 457.915,398.328 458.581,399.328 459,400.5C 459.333,400.167 459.667,399.833 460,399.5C 460.629,402.311 461.129,405.144 461.5,408C 461.646,410.034 460.98,411.701 459.5,413C 459.653,414.561 459.986,416.395 460.5,418.5C 459.709,424.6 458.375,430.433 456.5,436C 456.833,437.667 457.167,439.333 457.5,441C 456.298,443.692 454.464,444.526 452,443.5C 450.846,444.743 449.512,445.743 448,446.5C 447.667,445.833 447.333,445.167 447,444.5C 445.902,445.967 444.402,446.801 442.5,447C 438.905,447.584 435.405,448.418 432,449.5C 431.586,449.043 431.086,448.709 430.5,448.5C 429.646,449.522 428.646,450.355 427.5,451C 423.201,461.768 419.034,472.601 415,483.5C 414.333,485.167 414.333,486.833 415,488.5C 420.583,496.845 425.75,504.345 430.5,511C 430.201,512.32 430.034,513.82 430,515.5C 428.017,517.945 426.017,520.945 424,524.5C 423.667,524.167 423.333,523.833 423,523.5C 420.786,528.921 417.786,533.921 414,538.5C 398.261,523.678 383.427,509.178 369.5,495C 370.458,493.853 370.125,492.853 368.5,492C 377.233,477.84 384.233,462.507 389.5,446C 389.905,445.055 390.572,444.388 391.5,444C 390.704,440.494 391.371,437.16 393.5,434C 393.167,433.667 392.833,433.333 392.5,433C 393.639,425.492 395.306,418.159 397.5,411C 397.344,403.49 397.344,395.99 397.5,388.5C 397.503,385.398 397.003,385.065 396,387.5C 396.712,381.901 395.879,376.401 393.5,371C 396.162,368.106 398.829,365.94 401.5,364.5C 410.714,360.876 419.381,356.542 427.5,351.5 Z"/></g>
<g><path style="opacity:0.934" fill="#b10400" d="M 1371.5,361.5 C 1391.22,363.88 1400.89,374.88 1400.5,394.5C 1394.46,394.829 1388.46,394.496 1382.5,393.5C 1381.97,392.808 1381.31,392.308 1380.5,392C 1381.63,384.475 1378.3,380.308 1370.5,379.5C 1363.61,379.556 1360.28,383.056 1360.5,390C 1360.44,392.261 1361.11,394.261 1362.5,396C 1364.44,398.982 1367.11,401.982 1370.5,405C 1380.15,410.745 1388.98,417.578 1397,425.5C 1398,427.5 1399,429.5 1400,431.5C 1405.9,455.971 1396.23,469.971 1371,473.5C 1349.15,472.172 1338.99,460.838 1340.5,439.5C 1347.17,439.5 1353.83,439.5 1360.5,439.5C 1359.08,452.924 1364.75,457.757 1377.5,454C 1384.47,445.781 1383.81,438.114 1375.5,431C 1365.26,425.246 1355.92,418.246 1347.5,410C 1340.18,398.632 1339.68,386.465 1346,373.5C 1352.7,365.567 1361.2,361.567 1371.5,361.5 Z"/></g>
<g><path style="opacity:0.934" fill="#b00400" d="M 1688.5,362.5 C 1694.3,362.448 1700.3,362.615 1706.5,363C 1722.57,367.883 1729.57,379.05 1727.5,396.5C 1725.69,397.739 1723.69,398.406 1721.5,398.5C 1718.38,398.266 1715.55,398.266 1713,398.5C 1712.1,397.299 1710.93,396.465 1709.5,396C 1709.96,395.586 1710.29,395.086 1710.5,394.5C 1709.49,391.675 1708.66,388.675 1708,385.5C 1704.72,379.891 1699.89,378.058 1693.5,380C 1688.81,383.047 1686.14,387.38 1685.5,393C 1685.94,405.154 1685.94,417.321 1685.5,429.5C 1685.17,436.663 1686,443.663 1688,450.5C 1694.36,455.827 1700.7,455.827 1707,450.5C 1708.56,446.08 1710.23,441.747 1712,437.5C 1716.68,438.822 1721.35,438.822 1726,437.5C 1730.35,450.1 1726.85,460.266 1715.5,468C 1702.12,474.066 1689.12,473.4 1676.5,466C 1669.69,458.538 1666.02,449.705 1665.5,439.5C 1665.39,424.657 1665.56,409.657 1666,394.5C 1665.94,378.221 1673.44,367.555 1688.5,362.5 Z"/></g>
<g><path style="opacity:0.937" fill="#b10400" d="M 1414.5,364.5 C 1431.68,364.412 1448.68,364.579 1465.5,365C 1466.02,369.129 1466.35,373.629 1466.5,378.5C 1465.83,379.167 1465.17,379.833 1464.5,380.5C 1454.67,380.976 1444.67,381.309 1434.5,381.5C 1434.5,390.5 1434.5,399.5 1434.5,408.5C 1443.21,408.559 1451.71,408.559 1460,408.5C 1460.17,411 1460.33,413.5 1460.5,416C 1460.07,419.207 1460.07,422.207 1460.5,425C 1451.84,425.5 1443.17,425.666 1434.5,425.5C 1434.5,434.833 1434.5,444.167 1434.5,453.5C 1445.36,452.889 1455.86,452.889 1466,453.5C 1466.81,459.084 1466.64,464.584 1465.5,470C 1448.5,470.5 1431.5,470.667 1414.5,470.5C 1414.5,435.167 1414.5,399.833 1414.5,364.5 Z"/></g>
<g><path style="opacity:0.934" fill="#b00400" d="M 1598.5,363.5 C 1605.15,364.093 1611.81,364.759 1618.5,365.5C 1610.2,400.47 1602.54,435.303 1595.5,470C 1586.84,470.5 1578.17,470.666 1569.5,470.5C 1563.17,435.593 1555.84,400.593 1547.5,365.5C 1553.86,364.206 1560.19,364.206 1566.5,365.5C 1573.57,392.722 1579.07,419.722 1583,446.5C 1588.1,418.512 1593.27,390.845 1598.5,363.5 Z"/></g>
<g><path style="opacity:0.937" fill="#b00400" d="M 1648.5,363.5 C 1649.12,363.611 1649.62,363.944 1650,364.5C 1650.5,399.832 1650.67,435.165 1650.5,470.5C 1643.83,470.5 1637.17,470.5 1630.5,470.5C 1630.33,435.498 1630.5,400.498 1631,365.5C 1636.93,364.852 1642.77,364.186 1648.5,363.5 Z"/></g>
<g><path style="opacity:0.933" fill="#b00400" d="M 1744.5,364.5 C 1758.18,365.04 1771.85,365.04 1785.5,364.5C 1788.84,364.365 1791.5,365.032 1793.5,366.5C 1793.12,370.12 1793.12,373.62 1793.5,377C 1793.21,378.89 1792.21,380.223 1790.5,381C 1782.85,380.931 1775.19,380.764 1767.5,380.5C 1765.01,381.025 1762.68,381.858 1760.5,383C 1761.48,391.415 1761.82,399.915 1761.5,408.5C 1770.52,408.168 1779.52,408.502 1788.5,409.5C 1788.38,414.652 1788.38,419.985 1788.5,425.5C 1779.5,425.5 1770.5,425.5 1761.5,425.5C 1761.5,434.833 1761.5,444.167 1761.5,453.5C 1772,453.393 1782.67,453.393 1793.5,453.5C 1793.81,459.093 1793.47,464.593 1792.5,470C 1788.58,470.203 1784.75,470.703 1781,471.5C 1768.33,470.833 1755.67,470.167 1743,469.5C 1742.72,442.993 1742.88,417.326 1743.5,392.5C 1741.01,391.459 1741.01,390.626 1743.5,390C 1742.29,384.277 1742.29,378.277 1743.5,372C 1742.83,371.667 1742.17,371.333 1741.5,371C 1742.07,368.568 1743.07,366.401 1744.5,364.5 Z"/></g>
<g><path style="opacity:0.937" fill="#b10400" d="M 950.5,365.5 C 961.272,365.652 972.272,365.652 983.5,365.5C 996.004,366.836 1004.17,373.502 1008,385.5C 1009.27,390.598 1009.77,395.598 1009.5,400.5C 1009.21,402.044 1008.54,403.377 1007.5,404.5C 1008.41,407.897 1008.41,411.063 1007.5,414C 1004.18,419.648 999.851,424.314 994.5,428C 1000.05,441.897 1005.71,456.23 1011.5,471C 1004.67,472.625 997.669,472.958 990.5,472C 985.909,458.722 981.242,445.555 976.5,432.5C 973.914,431.52 971.247,431.187 968.5,431.5C 968.667,444.504 968.5,457.504 968,470.5C 967.5,471 967,471.5 966.5,472C 960.509,472.499 954.509,472.666 948.5,472.5C 947.85,436.612 948.517,400.945 950.5,365.5 Z M 968.5,381.5 C 986.811,380.317 993.644,388.65 989,406.5C 987.643,410.014 985.31,412.681 982,414.5C 977.625,414.242 973.125,414.242 968.5,414.5C 968.5,403.5 968.5,392.5 968.5,381.5 Z"/></g>
<g><path style="opacity:0.934" fill="#b10400" d="M 1056.5,364.5 C 1062,365.145 1067.5,365.811 1073,366.5C 1073.41,366.043 1073.91,365.709 1074.5,365.5C 1075.5,371.128 1075.83,376.794 1075.5,382.5C 1065.49,382.334 1055.49,382.5 1045.5,383C 1044.83,384.333 1044.17,385.667 1043.5,387C 1043.89,394.279 1044.22,401.779 1044.5,409.5C 1052.84,409.334 1061.17,409.5 1069.5,410C 1069.17,410.333 1068.83,410.667 1068.5,411C 1069.77,413.383 1070.43,416.05 1070.5,419C 1070.47,421.755 1070.14,424.422 1069.5,427C 1062.1,427.368 1054.94,427.202 1048,426.5C 1046.6,427.227 1045.1,427.727 1043.5,428C 1044.42,436.808 1044.75,445.975 1044.5,455.5C 1054.83,455.5 1065.17,455.5 1075.5,455.5C 1075.5,461.167 1075.5,466.833 1075.5,472.5C 1058.15,472.833 1040.82,472.5 1023.5,471.5C 1023.68,437.37 1023.85,402.704 1024,367.5C 1024.5,367 1025,366.5 1025.5,366C 1030.75,365.196 1035.92,365.363 1041,366.5C 1046.27,365.855 1051.43,365.188 1056.5,364.5 Z"/></g>
<g><path style="opacity:0.934" fill="#b10400" d="M 1089.5,365.5 C 1095.51,365.334 1101.51,365.501 1107.5,366C 1108.89,366.956 1109.56,368.289 1109.5,370C 1109.16,402.166 1108.99,435.666 1109,470.5C 1102.79,472.434 1096.29,473.101 1089.5,472.5C 1089.5,436.833 1089.5,401.167 1089.5,365.5 Z"/></g>
<g><path style="opacity:0.935" fill="#b10400" d="M 1126.5,365.5 C 1142.92,365.965 1159.25,365.965 1175.5,365.5C 1175.5,371.167 1175.5,376.833 1175.5,382.5C 1165.07,381.873 1154.91,382.54 1145,384.5C 1143.61,393.682 1143.77,402.682 1145.5,411.5C 1146.09,411.291 1146.59,410.957 1147,410.5C 1154.42,411.316 1161.92,411.816 1169.5,412C 1170.47,417.407 1170.81,422.907 1170.5,428.5C 1164.47,428.087 1158.63,428.087 1153,428.5C 1152.67,427.833 1152.33,427.167 1152,426.5C 1151.48,427.516 1150.65,428.182 1149.5,428.5C 1148.04,427.61 1146.71,427.61 1145.5,428.5C 1145.13,431.391 1145.13,434.391 1145.5,437.5C 1145.08,438.672 1144.41,439.672 1143.5,440.5C 1143.5,442.167 1143.5,443.833 1143.5,445.5C 1143.98,446.478 1144.64,447.311 1145.5,448C 1144.47,455.409 1144.47,462.742 1145.5,470C 1143.78,470.448 1143.11,471.282 1143.5,472.5C 1137.65,472.72 1131.65,472.387 1125.5,471.5C 1125.29,470.914 1124.96,470.414 1124.5,470C 1125.17,435.167 1125.84,400.333 1126.5,365.5 Z"/></g>
<g><path style="opacity:0.937" fill="#b20400" d="M 1299.5,364.5 C 1305.45,365.464 1310.95,365.797 1316,365.5C 1316.5,401.165 1316.67,436.832 1316.5,472.5C 1309.91,472.811 1303.41,472.478 1297,471.5C 1288.32,449.486 1279.66,427.486 1271,405.5C 1270.17,427.406 1270.34,449.24 1271.5,471C 1265.35,472.455 1259.01,472.955 1252.5,472.5C 1252.33,437.165 1252.5,401.832 1253,366.5C 1259.08,365.358 1265.25,365.191 1271.5,366C 1280.72,386.949 1289.55,408.116 1298,429.5C 1298.18,407.761 1298.68,386.094 1299.5,364.5 Z"/></g>
<g><path style="opacity:0.933" fill="#b00400" d="M 1479.5,364.5 C 1490.47,365.124 1500.97,365.124 1511,364.5C 1525.19,365.019 1534.52,372.019 1539,385.5C 1540.32,391.708 1540.82,397.541 1540.5,403C 1539.3,413.394 1534.3,421.394 1525.5,427C 1531.25,441.795 1536.58,456.295 1541.5,470.5C 1534.46,470.425 1527.62,470.425 1521,470.5C 1516.01,457.026 1511.51,443.359 1507.5,429.5C 1504.83,429.5 1502.17,429.5 1499.5,429.5C 1499.5,443.167 1499.5,456.833 1499.5,470.5C 1492.83,470.5 1486.17,470.5 1479.5,470.5C 1479.44,435.316 1479.44,399.982 1479.5,364.5 Z M 1499.5,381.5 C 1517.7,379.514 1524.53,387.18 1520,404.5C 1519.04,409.79 1515.88,412.624 1510.5,413C 1506.85,413.499 1503.18,413.665 1499.5,413.5C 1499.5,402.833 1499.5,392.167 1499.5,381.5 Z"/></g>
<g><path style="opacity:0.937" fill="#b20400" d="M 341.5,381.5 C 342.15,381.804 342.817,382.137 343.5,382.5C 347.658,408.156 347.158,433.822 342,459.5C 341.411,462.897 340.078,465.897 338,468.5C 334.029,466.028 330.195,463.362 326.5,460.5C 319.209,452.708 311.709,445.041 304,437.5C 304.011,431.084 303.844,425.084 303.5,419.5C 303.748,416.839 304.748,414.506 306.5,412.5C 318.554,402.436 330.221,392.103 341.5,381.5 Z"/></g>
<g><path style="opacity:0.933" fill="#b00400" d="M 1186.5,366.5 C 1203.66,365.503 1220.99,365.17 1238.5,365.5C 1238.5,371.167 1238.5,376.833 1238.5,382.5C 1228.17,382.5 1217.83,382.5 1207.5,382.5C 1206.35,391.538 1206.19,400.204 1207,408.5C 1215.42,409.318 1223.92,409.818 1232.5,410C 1233.64,415.75 1233.81,421.584 1233,427.5C 1232.37,425.009 1231.54,425.009 1230.5,427.5C 1224.45,427.807 1218.28,427.474 1212,426.5C 1210.27,427.249 1208.43,427.749 1206.5,428C 1206.84,437.503 1206.84,446.503 1206.5,455C 1216.83,455.333 1227.17,455.667 1237.5,456C 1238.47,461.407 1238.81,466.907 1238.5,472.5C 1221.1,473.144 1203.93,472.478 1187,470.5C 1187.65,435.644 1187.48,400.977 1186.5,366.5 Z"/></g>
<g><path style="opacity:0.936" fill="#b30400" d="M 427.5,275.5 C 428.794,276.29 429.961,277.29 431,278.5C 431.333,278.167 431.667,277.833 432,277.5C 434.944,280.334 437.111,283 438.5,285.5C 435.662,289.182 432.829,292.848 430,296.5C 428.334,295.66 428.167,296.16 429.5,298C 425.774,301.359 422.608,305.192 420,309.5C 419.167,310.333 418.333,311.167 417.5,312C 411.947,312.609 406.947,314.609 402.5,318C 401.167,318.667 401.167,319.333 402.5,320C 401.069,320.465 399.903,321.299 399,322.5C 384.926,332.767 370.926,344.434 357,357.5C 356.667,357.167 356.333,356.833 356,356.5C 351.421,362.415 346.587,367.249 341.5,371C 323.4,388.076 304.4,404.242 284.5,419.5C 283.417,420.365 283.251,421.365 284,422.5C 287.162,424.318 289.828,426.652 292,429.5C 292.333,429.167 292.667,428.833 293,428.5C 293.157,430.995 293.324,433.328 293.5,435.5C 290.86,440.638 287.527,445.805 283.5,451C 280.902,453.748 278.069,455.248 275,455.5C 272.319,454.663 269.986,453.33 268,451.5C 260.126,455.043 253.793,460.376 249,467.5C 247.309,464.756 245.809,461.923 244.5,459C 244.645,458.228 244.978,457.561 245.5,457C 244.682,455.823 243.682,454.49 242.5,453C 243.923,451.588 243.756,450.421 242,449.5C 241.639,446.475 241.139,443.475 240.5,440.5C 240.453,435.239 240.786,430.073 241.5,425C 237.864,415.766 240.864,408.099 250.5,402C 252.39,400.888 254.39,400.054 256.5,399.5C 257.647,399.818 258.481,400.484 259,401.5C 262.025,400.291 264.859,400.791 267.5,403C 269.35,405.018 271.35,406.851 273.5,408.5C 307.401,381.434 340.234,353.101 372,323.5C 372.333,323.833 372.667,324.167 373,324.5C 374.29,322.208 375.957,320.208 378,318.5C 378.333,318.833 378.667,319.167 379,319.5C 380.835,315.955 383.335,313.789 386.5,313C 390.549,307.303 395.883,302.303 402.5,298C 402.073,295.872 402.573,293.705 404,291.5C 407.034,289.194 410.034,286.86 413,284.5C 413.718,285.451 414.551,285.617 415.5,285C 419.02,281.092 423.02,277.925 427.5,275.5 Z"/></g>
<g><path style="opacity:0.936" fill="#b30400" d="M 299.5,443.5 C 303.121,447.799 307.121,451.966 311.5,456C 310.346,456.914 310.513,457.747 312,458.5C 312.333,458.167 312.667,457.833 313,457.5C 320.843,465.655 329.676,472.822 339.5,479C 362.473,499.999 383.973,520.832 404,541.5C 407.408,546.25 408.408,551.584 407,557.5C 402.872,568.878 394.538,573.878 382,572.5C 379.929,571.636 378.262,570.303 377,568.5C 376.667,568.833 376.333,569.167 376,569.5C 352.351,546.586 331.351,522.253 313,496.5C 302.222,485.053 291.389,473.553 280.5,462C 283.295,460.207 285.795,458.04 288,455.5C 288.333,455.833 288.667,456.167 289,456.5C 292.201,451.137 295.701,446.803 299.5,443.5 Z M 351.5,513.5 C 350.524,512.185 349.524,510.852 348.5,509.5C 349.145,508.354 349.978,507.354 351,506.5C 363.971,518.47 376.638,530.804 389,543.5C 390.751,545.212 391.418,547.212 391,549.5C 389.506,550.747 388.006,550.747 386.5,549.5C 374.785,537.453 363.118,525.453 351.5,513.5 Z"/></g>
</svg>
